<svg width="375" height="812" viewBox="0 0 375 812" fill="none" xmlns="http://www.w3.org/2000/svg">
<g clip-path="url(#clip0_13_243)">
<rect width="375" height="812" rx="20" fill="#262525"/>
<g filter="url(#filter0_d_13_243)">
<rect width="375" height="1023" fill="white"/>
</g>
<path d="M450 738.337C450 816.584 175.469 867 88.3596 867C1.25065 867 -164 691.927 -164 613.679C-164 535.432 -93.3842 472 -6.27523 472C80.8338 472 450 660.09 450 738.337Z" fill="#F13260" fill-opacity="0.1"/>
<path d="M483.638 69.3207C483.638 147.37 510.245 322 413.751 322C317.256 322 -131 133.388 -131 55.3384C-131 -22.7108 212.424 -72 308.919 -72C405.414 -72 483.638 -8.72859 483.638 69.3207Z" fill="#F13260" fill-opacity="0.1"/>
<path d="M93.6458 145.348C93.6458 143.775 92.714 142.351 91.2713 141.72C89.1381 140.788 87.2982 139.521 85.7538 137.922C84.2072 136.323 82.9939 134.431 82.1165 132.243C81.2367 130.058 80.7969 127.686 80.7969 125.127C80.7969 122.781 81.1824 120.544 81.9557 118.411C82.7267 116.28 83.8359 114.412 85.2738 112.813C86.714 111.214 88.4452 109.949 90.472 109.015C90.6966 108.911 90.926 108.814 91.1554 108.721C92.6596 108.125 93.6434 106.666 93.6434 105.049V97.9064C93.6434 97.2537 93.0592 96.7476 92.4136 96.854C90.2094 97.2159 88.0952 97.8024 86.0731 98.6207C82.4476 100.087 79.288 102.114 76.5967 104.699C73.903 107.286 71.7981 110.337 70.2798 113.856C68.7615 117.375 68 121.159 68 125.21C68 129.261 68.745 132.967 70.2396 136.486C71.7319 140.005 73.7847 143.056 76.398 145.643C79.0089 148.231 82.0763 150.269 85.593 151.762C87.7688 152.684 90.0486 153.32 92.4278 153.673C93.0687 153.767 93.6434 153.263 93.6434 152.615V145.353L93.6458 145.348Z" fill="#ED3349"/>
<path d="M95.8101 99.5593V99.5782C95.8101 100.787 96.7324 101.792 97.9362 101.901C109.905 102.977 119.285 113.035 119.285 125.283C119.285 137.531 109.905 147.59 97.9362 148.666C96.7324 148.774 95.8101 149.78 95.8101 150.988V151.007C95.8101 152.376 96.9855 153.455 98.35 153.334C112.713 152.05 123.972 139.981 123.972 125.285C123.972 110.59 112.713 98.521 98.35 97.2369C96.9855 97.1139 95.8101 98.1923 95.8101 99.564V99.5593Z" fill="#231F20"/>
<path d="M114.583 125.262C114.583 115.788 107.566 107.953 98.4441 106.671C97.0487 106.475 95.8071 107.577 95.8071 108.986C95.8071 110.138 96.6467 111.131 97.789 111.292C104.643 112.255 109.917 118.143 109.917 125.262C109.917 132.381 104.643 138.269 97.789 139.232C96.6467 139.393 95.8071 140.384 95.8071 141.538C95.8071 142.947 97.0487 144.047 98.4441 143.853C107.563 142.571 114.583 134.736 114.583 125.262Z" fill="#231F20"/>
<path d="M105.197 125.222C105.197 120.391 101.545 116.411 96.853 115.893C96.2949 115.831 95.8101 116.276 95.8101 116.836V133.609C95.8101 134.169 96.2949 134.614 96.853 134.552C101.547 134.034 105.197 130.054 105.197 125.222Z" fill="#231F20"/>
<path d="M148.079 116.264C145.447 116.264 143.214 117.184 141.381 119.019C139.548 120.856 138.631 123.091 138.631 125.728C138.631 128.365 139.553 130.567 141.398 132.405C143.243 134.24 145.47 135.16 148.079 135.16C149.772 135.16 151.345 134.725 152.804 133.854V139.071C151.276 139.611 149.701 139.883 148.079 139.883C144.129 139.883 140.776 138.511 138.014 135.763C135.251 133.017 133.87 129.671 133.87 125.728C133.87 121.786 135.251 118.435 138.014 115.677C140.776 112.92 144.129 111.541 148.079 111.541C149.701 111.541 151.276 111.81 152.804 112.347V117.569C151.347 116.699 149.772 116.264 148.079 116.264Z" fill="#ED3349"/>
<path d="M164.334 139.84C162.469 139.84 160.735 139.374 159.136 138.44C157.538 137.506 156.279 136.236 155.359 134.623C154.413 133.064 153.94 131.338 153.94 129.446C153.94 127.554 154.406 125.847 155.34 124.248C156.275 122.649 157.547 121.377 159.158 120.431C160.742 119.511 162.469 119.05 164.334 119.05C166.2 119.05 167.896 119.504 169.492 120.412C171.091 121.32 172.364 122.54 173.31 124.075C174.256 125.636 174.729 127.322 174.729 129.139L174.691 139.724H170.396V137.884C168.554 139.187 166.534 139.84 164.337 139.84H164.334ZM167.364 124.191C166.444 123.654 165.434 123.385 164.334 123.385C163.235 123.385 162.258 123.659 161.324 124.21C160.39 124.759 159.657 125.494 159.12 126.416C158.557 127.31 158.275 128.32 158.275 129.446C158.275 130.572 158.55 131.522 159.101 132.457C159.652 133.391 160.385 134.126 161.307 134.663C162.201 135.226 163.213 135.507 164.337 135.507C165.46 135.507 166.413 135.233 167.347 134.682C168.282 134.133 169.029 133.398 169.592 132.478C170.129 131.558 170.398 130.548 170.398 129.448C170.398 128.349 170.124 127.372 169.573 126.438C169.024 125.504 168.289 124.756 167.369 124.193L167.364 124.191Z" fill="#EC344A"/>
<path d="M181.299 139.845H176.273V111.539H181.299V139.845Z" fill="#EC344A"/>
<path d="M188.233 139.845H183.208V111.539H188.233V139.845Z" fill="#EC344A"/>
<path d="M200.199 119.08C201.656 119.08 203.165 119.432 204.726 120.134C206.286 120.837 207.616 121.996 208.715 123.606C209.917 125.422 210.517 127.378 210.517 129.474C210.517 130.036 210.48 130.585 210.402 131.122L210.326 131.084V131.122L194.447 131.543C194.755 132.387 195.214 133.123 195.829 133.747C196.441 134.374 197.158 134.84 197.976 135.147C198.641 135.403 199.357 135.53 200.123 135.53C200.994 135.53 201.831 135.358 202.635 135.012C203.441 134.667 204.125 134.175 204.688 133.537L208.869 135.147C207.923 136.604 206.67 137.756 205.111 138.6C203.553 139.444 201.89 139.865 200.126 139.865C198.643 139.865 197.127 139.513 195.58 138.81C194.034 138.108 192.709 136.937 191.609 135.301C190.382 133.485 189.77 131.529 189.77 129.433C189.77 128.206 189.999 126.979 190.46 125.751C191.226 123.757 192.506 122.147 194.296 120.919C196.086 119.692 198.054 119.077 200.201 119.077L200.199 119.08ZM205.799 127.288C205.518 126.496 205.078 125.798 204.477 125.198C203.877 124.597 203.167 124.143 202.349 123.835C201.684 123.58 200.968 123.452 200.201 123.452C198.948 123.452 197.799 123.798 196.749 124.488C195.701 125.179 194.946 126.125 194.485 127.326L194.41 127.556L205.802 127.286L205.799 127.288Z" fill="#EC344A"/>
<path d="M222.18 123.566C221.106 123.566 220.101 123.84 219.169 124.391C218.235 124.94 217.502 125.675 216.963 126.595C216.4 127.489 216.118 128.501 216.118 129.625L216.194 139.943H211.708L211.67 128.937C211.67 127.12 212.136 125.439 213.07 123.892C214.004 122.345 215.288 121.111 216.925 120.191C218.509 119.297 220.224 118.848 222.064 118.848L223.062 118.923V123.641C222.601 123.589 222.308 123.563 222.18 123.563V123.566Z" fill="#EC344A"/>
<path d="M248.272 134.824C247.338 136.359 246.066 137.586 244.455 138.506C242.845 139.426 241.118 139.887 239.278 139.887C237.438 139.887 235.679 139.422 234.08 138.487C232.481 137.553 231.223 136.281 230.303 134.67C229.357 133.109 228.884 131.385 228.884 129.493C228.884 127.601 229.35 125.894 230.284 124.295C231.219 122.696 232.491 121.424 234.101 120.478C235.686 119.558 237.412 119.097 239.278 119.097C241.478 119.097 243.497 119.75 245.337 121.053V114.071L249.632 111.77L249.67 129.796C249.67 131.612 249.204 133.287 248.27 134.819L248.272 134.824ZM242.308 124.238C241.388 123.702 240.378 123.432 239.278 123.432C238.179 123.432 237.202 123.706 236.268 124.257C235.334 124.806 234.6 125.541 234.064 126.461C233.501 127.355 233.219 128.368 233.219 129.491C233.219 130.614 233.494 131.567 234.045 132.502C234.596 133.436 235.329 134.169 236.251 134.708C237.145 135.271 238.157 135.552 239.281 135.552C240.404 135.552 241.357 135.278 242.291 134.727C243.225 134.176 243.973 133.443 244.536 132.521C245.073 131.601 245.342 130.591 245.342 129.491C245.342 128.391 245.068 127.415 244.517 126.48C243.968 125.546 243.233 124.799 242.313 124.236L242.308 124.238Z" fill="#221F1F"/>
<path d="M261.25 119.08C262.707 119.08 264.216 119.432 265.776 120.134C267.337 120.837 268.666 121.996 269.766 123.606C270.967 125.422 271.568 127.378 271.568 129.474C271.568 130.036 271.53 130.585 271.452 131.122L271.377 131.084V131.122L255.498 131.543C255.806 132.387 256.264 133.123 256.879 133.747C257.492 134.374 258.208 134.84 259.027 135.147C259.691 135.403 260.408 135.53 261.174 135.53C262.044 135.53 262.882 135.358 263.686 135.012C264.492 134.667 265.176 134.175 265.739 133.537L269.92 135.147C268.974 136.604 267.72 137.756 266.162 138.6C264.603 139.444 262.941 139.865 261.177 139.865C259.694 139.865 258.178 139.513 256.631 138.81C255.084 138.108 253.76 136.937 252.66 135.301C251.433 133.485 250.82 131.529 250.82 129.433C250.82 128.206 251.05 126.979 251.511 125.751C252.277 123.757 253.557 122.147 255.347 120.919C257.137 119.692 259.105 119.077 261.252 119.077L261.25 119.08ZM266.85 127.288C266.569 126.496 266.129 125.798 265.528 125.198C264.927 124.597 264.218 124.143 263.4 123.835C262.735 123.58 262.018 123.452 261.252 123.452C259.999 123.452 258.849 123.798 257.799 124.488C256.752 125.179 255.997 126.125 255.536 127.326L255.46 127.556L266.852 127.286L266.85 127.288Z" fill="#221F1F"/>
<path d="M283.613 135.135C284.202 134.866 284.559 134.438 284.687 133.851C284.713 133.776 284.724 133.648 284.724 133.468C284.724 132.856 284.379 132.38 283.689 132.049C283.483 131.921 282.577 131.666 280.966 131.283L279.663 130.975C278.102 130.54 276.837 130.105 275.868 129.672C274.896 129.237 274.129 128.674 273.566 127.984C273.004 127.293 272.722 126.423 272.722 125.375C272.722 124.096 273.041 122.92 273.68 121.847C274.319 120.773 275.189 120.044 276.289 119.661C277.209 119.328 278.488 119.162 280.125 119.162C282.095 119.162 284.434 119.366 287.144 119.775L285.763 123.495L280.278 122.996C278.642 122.97 277.708 123.417 277.478 124.339C277.452 124.467 277.44 124.607 277.44 124.76C277.44 125.221 277.838 125.605 278.63 125.912C278.859 126.04 279.985 126.373 282.005 126.91C284.306 127.473 285.954 128.01 286.952 128.521C288.69 129.493 289.561 130.86 289.561 132.624C289.561 133.059 289.497 133.596 289.369 134.234C288.934 136.025 287.931 137.373 286.359 138.281C284.786 139.189 282.683 139.603 280.049 139.527L274.028 138.912L275.754 134.963L280.893 135.5C282.121 135.526 283.029 135.403 283.615 135.135H283.613Z" fill="#221F1F"/>
<path d="M308 139.913H303.244L297.298 131.744L296.492 133.433V139.57C296.492 139.75 296.48 139.863 296.454 139.915H291.852V111.801H296.492V126.567L302.896 119.203H307.997L299.713 128.791L307.997 139.913H308Z" fill="#221F1F"/>
</g>
<defs>
<filter id="filter0_d_13_243" x="-4" y="0" width="383" height="1031" filterUnits="userSpaceOnUse" color-interpolation-filters="sRGB">
<feFlood flood-opacity="0" result="BackgroundImageFix"/>
<feColorMatrix in="SourceAlpha" type="matrix" values="0 0 0 0 0 0 0 0 0 0 0 0 0 0 0 0 0 0 127 0" result="hardAlpha"/>
<feOffset dy="4"/>
<feGaussianBlur stdDeviation="2"/>
<feComposite in2="hardAlpha" operator="out"/>
<feColorMatrix type="matrix" values="0 0 0 0 0 0 0 0 0 0 0 0 0 0 0 0 0 0 0.25 0"/>
<feBlend mode="normal" in2="BackgroundImageFix" result="effect1_dropShadow_13_243"/>
<feBlend mode="normal" in="SourceGraphic" in2="effect1_dropShadow_13_243" result="shape"/>
</filter>
<clipPath id="clip0_13_243">
<rect width="375" height="812" rx="20" fill="white"/>
</clipPath>
</defs>
</svg>
